<svg width="32" height="32" viewBox="0 0 32 32" fill="none" xmlns="http://www.w3.org/2000/svg">
  <!-- Background circle -->
  <circle cx="16" cy="16" r="16" fill="#000000"/>
  
  <!-- Light blue teardrop/flame shape -->
  <path d="M16 4C19 4 21.5 6 22.5 8.5C23.5 11 23.5 14 22.5 16.5C21.5 19 19 21 16 21C13 21 10.5 19 9.5 16.5C8.5 14 8.5 11 9.5 8.5C10.5 6 13 4 16 4Z" fill="#87CEEB" stroke="#5F9EA0" stroke-width="0.5"/>
  
  <!-- Off-white curved "6" or "g" shape -->
  <path d="M12 7C12.5 6.5 13.5 6.5 14 7C14.5 7.5 14.5 8.5 14 9C13.5 9.5 12.5 9.5 12 9C11.5 8.5 11.5 7.5 12 7ZM14 9C14.5 9.5 14.5 10.5 14 11C13.5 11.5 12.5 11.5 12 11C11.5 10.5 11.5 9.5 12 9C12.5 8.5 13.5 8.5 14 9ZM12 11C11.5 11.5 11.5 12.5 12 13C12.5 13.5 13.5 13.5 14 13C14.5 12.5 14.5 11.5 14 11C13.5 10.5 12.5 10.5 12 11ZM14 13C14.5 13.5 14.5 14.5 14 15C13.5 15.5 12.5 15.5 12 15C11.5 14.5 11.5 13.5 12 13C12.5 12.5 13.5 12.5 14 13ZM12 15C11.5 15.5 11.5 16.5 12 17C12.5 17.5 13.5 17.5 14 17C14.5 16.5 14.5 15.5 14 15C13.5 14.5 12.5 14.5 12 15Z" fill="#F5F5DC" stroke="#E6E6D1" stroke-width="0.3"/>
</svg> 